<svg width="32" height="32" viewBox="0 0 32 32" fill="none" xmlns="http://www.w3.org/2000/svg">
<g opacity="0.5">
<rect x="13" y="14" width="6" height="4" fill="#F2EDCC"/>
<rect x="14" y="14" width="4" height="4" fill="#F2EDCC"/>
<rect x="14" y="13" width="4" height="6" fill="#F2EDCC"/>
</g>
<rect x="13" y="10" width="6" height="1" fill="#F2EDCC"/>
<path d="M13 21H19V22H13V21Z" fill="#F2EDCC"/>
<rect x="22" y="13" width="6" height="1" transform="rotate(90 22 13)" fill="#F2EDCC"/>
<rect x="11" y="13" width="6" height="1" transform="rotate(90 11 13)" fill="#F2EDCC"/>
<rect x="12" y="11" width="2" height="1" transform="rotate(90 12 11)" fill="#F2EDCC"/>
<rect x="21" y="11" width="2" height="1" transform="rotate(90 21 11)" fill="#F2EDCC"/>
<rect x="12" y="19" width="2" height="1" transform="rotate(90 12 19)" fill="#F2EDCC"/>
<rect x="21" y="19" width="2" height="1" transform="rotate(90 21 19)" fill="#F2EDCC"/>
<rect x="21" y="12" width="2" height="1" transform="rotate(-180 21 12)" fill="#F2EDCC"/>
<rect x="21" y="21" width="2" height="1" transform="rotate(-180 21 21)" fill="#F2EDCC"/>
<rect x="13" y="12" width="2" height="1" transform="rotate(-180 13 12)" fill="#F2EDCC"/>
<rect x="13" y="21" width="2" height="1" transform="rotate(-180 13 21)" fill="#F2EDCC"/>
</svg>
