<svg width="32" height="32" viewBox="0 0 32 32" fill="none" xmlns="http://www.w3.org/2000/svg">
<rect x="15" y="14" width="1" height="1" fill="#FFFCEA"/>
<rect x="16" y="13" width="1" height="1" fill="#FFFCEA"/>
<rect x="15" y="12" width="1" height="1" fill="#FFFCEA"/>
<rect x="16" y="11" width="1" height="1" fill="#FFFCEA"/>
<rect x="15" y="10" width="1" height="1" fill="#FFFCEA"/>
<rect x="18" y="15" width="1" height="1" transform="rotate(90 18 15)" fill="#FFFCEA"/>
<rect x="19" y="16" width="1" height="1" transform="rotate(90 19 16)" fill="#FFFCEA"/>
<rect x="20" y="15" width="1" height="1" transform="rotate(90 20 15)" fill="#FFFCEA"/>
<rect x="21" y="16" width="1" height="1" transform="rotate(90 21 16)" fill="#FFFCEA"/>
<rect x="22" y="15" width="1" height="1" transform="rotate(90 22 15)" fill="#FFFCEA"/>
<rect x="17" y="18" width="1" height="1" transform="rotate(-180 17 18)" fill="#FFFCEA"/>
<rect x="16" y="19" width="1" height="1" transform="rotate(-180 16 19)" fill="#FFFCEA"/>
<rect x="17" y="20" width="1" height="1" transform="rotate(-180 17 20)" fill="#FFFCEA"/>
<rect x="16" y="21" width="1" height="1" transform="rotate(-180 16 21)" fill="#FFFCEA"/>
<rect x="17" y="22" width="1" height="1" transform="rotate(-180 17 22)" fill="#FFFCEA"/>
<rect x="14" y="17" width="1" height="1" transform="rotate(-90 14 17)" fill="#FFFCEA"/>
<rect x="13" y="16" width="1" height="1" transform="rotate(-90 13 16)" fill="#FFFCEA"/>
<rect x="12" y="17" width="1" height="1" transform="rotate(-90 12 17)" fill="#FFFCEA"/>
<rect x="11" y="16" width="1" height="1" transform="rotate(-90 11 16)" fill="#FFFCEA"/>
<rect x="10" y="17" width="1" height="1" transform="rotate(-90 10 17)" fill="#FFFCEA"/>
<path fill-rule="evenodd" clip-rule="evenodd" d="M19 10H13V11H12V12H11V13H10V19H11L11 20H12L12 21H13V22H19V21H20V20H21V19H22V13H21V12H20V11H19V10ZM19 11V12L20 12V13H21V19H20V20H19V21H13V20H12V19H11L11 13H12V12H13V11H19Z" fill="#FFFCEA"/>
</svg>
