<svg width="12" height="12" viewBox="0 0 12 12" fill="none" xmlns="http://www.w3.org/2000/svg">
<g clip-path="url(#clip0_1008_191)">
<path fill-rule="evenodd" clip-rule="evenodd" d="M4 2H8V3H9V4H8H7V3H5V4H4V8H5V9H7V8H8H9V9H8V10H4V9H3V3H4V2Z" fill="#FFFCEA"/>
<path fill-rule="evenodd" clip-rule="evenodd" d="M9 0H3V1H2L2 2H1V3V9V10H2L2 11H3V12H9V11H10V10H11V9V3V2H10V1H9V0ZM9 1V2L10 2V3V9V10H9V11H3V10H2L2 9L2 3V2H3V1H9Z" fill="#FFFCEA"/>
</g>
<defs>
<clipPath id="clip0_1008_191">
<rect width="12" height="12" fill="white"/>
</clipPath>
</defs>
</svg>
