<svg width="64" height="64" viewBox="0 0 64 64" fill="none" xmlns="http://www.w3.org/2000/svg">
<path fill-rule="evenodd" clip-rule="evenodd" d="M0 24.66C0 18.464 0 15.3661 0.754688 12.8426C2.49154 7.03492 7.03492 2.49154 12.8426 0.754688C15.3661 0 18.464 0 24.66 0H39.34C45.536 0 48.6339 0 51.1574 0.754688C56.9651 2.49154 61.5085 7.03492 63.2453 12.8426C64 15.3661 64 18.464 64 24.66V39.34C64 45.536 64 48.6339 63.2453 51.1574C61.5085 56.9651 56.9651 61.5085 51.1574 63.2453C48.6339 64 45.536 64 39.34 64H24.66C18.464 64 15.3661 64 12.8426 63.2453C7.03492 61.5085 2.49154 56.9651 0.754688 51.1574C0 48.6339 0 45.536 0 39.34V24.66ZM32 43.0667C38.1119 43.0667 43.0667 38.1119 43.0667 32C43.0667 25.888 38.1119 20.9333 32 20.9333C25.888 20.9333 20.9333 25.888 20.9333 32C20.9333 38.1119 25.888 43.0667 32 43.0667ZM32 49.0667C41.4257 49.0667 49.0667 41.4257 49.0667 32C49.0667 22.5743 41.4257 14.9333 32 14.9333C22.5743 14.9333 14.9333 22.5743 14.9333 32C14.9333 41.4257 22.5743 49.0667 32 49.0667ZM50.1333 18.1333C52.4897 18.1333 54.4 16.2231 54.4 13.8667C54.4 11.5102 52.4897 9.59999 50.1333 9.59999C47.7769 9.59999 45.8667 11.5102 45.8667 13.8667C45.8667 16.2231 47.7769 18.1333 50.1333 18.1333Z" fill="white"/>
</svg>
