<svg width="64" height="64" viewBox="0 0 64 64" fill="none" xmlns="http://www.w3.org/2000/svg">
<g clip-path="url(#clip0_94_2)">
<path d="M61.803 28.7231C64.7323 29.9257 64.7323 34.0743 61.803 35.2769L42.9974 42.9974L35.2769 61.803C34.0743 64.7323 29.9257 64.7323 28.7231 61.803L21.0026 42.9974L2.19701 35.2769C-0.732339 34.0743 -0.732335 29.9257 2.19702 28.7231L21.0026 21.0026L28.7231 2.19701C29.9257 -0.732343 34.0743 -0.732336 35.2769 2.19702L42.9974 21.0026L61.803 28.7231Z" fill="white"/>
<path d="M13 13L16 16" stroke="white" stroke-width="6" stroke-linecap="round"/>
<path d="M51 51L48 48" stroke="white" stroke-width="6" stroke-linecap="round"/>
<path d="M13 51L16 48" stroke="white" stroke-width="6" stroke-linecap="round"/>
<path d="M51 13L48 16" stroke="white" stroke-width="6" stroke-linecap="round"/>
</g>
<defs>
<clipPath id="clip0_94_2">
<rect width="64" height="64" fill="white"/>
</clipPath>
</defs>
</svg>
